<svg width="37" height="37" viewBox="0 0 37 37" fill="none" xmlns="http://www.w3.org/2000/svg">
    <path d="M17.8333 29.8333C21.0903 29.8333 23.849 28.7031 26.1094 26.4427C28.3698 24.1823 29.5 21.4236 29.5 18.1667C29.5 14.9097 28.3698 12.151 26.1094 9.89062C23.849 7.63021 21.0903 6.5 17.8333 6.5C16.1562 6.5 14.5521 6.84611 13.0208 7.53833C11.4896 8.23056 10.1771 9.22125 9.08333 10.5104V6.5H6.16667V16.7083H16.375V13.7917H10.25C11.0278 12.4306 12.0909 11.3611 13.4394 10.5833C14.7878 9.80556 16.2525 9.41667 17.8333 9.41667C20.2639 9.41667 22.3299 10.2674 24.0312 11.9688C25.7326 13.6701 26.5833 15.7361 26.5833 18.1667C26.5833 20.5972 25.7326 22.6632 24.0312 24.3646C22.3299 26.066 20.2639 26.9167 17.8333 26.9167C15.9618 26.9167 14.2726 26.3819 12.7656 25.3125C11.2587 24.2431 10.2014 22.8333 9.59375 21.0833H6.53125C7.21181 23.6597 8.59722 25.7622 10.6875 27.3906C12.7778 29.0191 15.1597 29.8333 17.8333 29.8333Z" fill="#0099FF"/>
    <path d="M5.41699 5.75V17.458H17.125V13.042H11.6719C12.2667 12.3166 12.9798 11.7148 13.8145 11.2334C15.047 10.5225 16.3817 10.167 17.833 10.167C20.0669 10.167 21.9418 10.9399 23.501 12.499C25.0601 14.0582 25.833 15.9331 25.833 18.167C25.8329 20.4007 25.0599 22.275 23.501 23.834C21.9418 25.3931 20.0669 26.167 17.833 26.167C16.115 26.1669 14.5775 25.6793 13.1992 24.7012C11.82 23.7223 10.8593 22.4398 10.3027 20.8369L10.127 20.333H5.55762L5.80566 21.2744C6.52788 24.0085 8.00602 26.2525 10.2266 27.9824C12.4498 29.7144 14.9942 30.5829 17.833 30.583C21.2847 30.583 24.2356 29.3767 26.6396 26.9727C29.0435 24.5687 30.2499 21.6184 30.25 18.167C30.25 14.7153 29.0437 11.7644 26.6396 9.36035C24.2356 6.95634 21.2847 5.75 17.833 5.75C16.0493 5.75004 14.3399 6.11857 12.7119 6.85449C11.6548 7.33239 10.695 7.9456 9.83301 8.69043V5.75H5.41699Z" stroke="black" stroke-opacity="0.2" stroke-width="1.5"/>
</svg>
