<svg width="30" height="30" viewBox="0 0 30 30" fill="none" xmlns="http://www.w3.org/2000/svg">
  <path d="M20.8252 0C21.0737 0.000270497 21.3117 0.0995711 21.4873 0.275391L29.7246 8.5127C29.9004 8.6883 29.9997 8.92632 30 9.1748V20.8252C29.9997 21.0737 29.9004 21.3117 29.7246 21.4873L21.4873 29.7246C21.3117 29.9004 21.0737 29.9997 20.8252 30H9.1748C8.92632 29.9997 8.6883 29.9004 8.5127 29.7246L0.275391 21.4873C0.0995711 21.3117 0.000270497 21.0737 0 20.8252V9.1748C0.000270497 8.92632 0.0995711 8.6883 0.275391 8.5127L8.5127 0.275391C8.6883 0.0995711 8.92632 0.000270497 9.1748 0H20.8252ZM5.37012 11.4004C4.81697 11.4004 4.34035 11.49 3.94043 11.6699C3.54043 11.8433 3.22977 12.0871 3.00977 12.4004C2.78994 12.707 2.6797 13.0601 2.67969 13.46C2.67969 13.8599 2.76711 14.1964 2.94043 14.4697C3.12043 14.7364 3.3838 14.9565 3.73047 15.1299C4.08369 15.2965 4.51002 15.4334 5.00977 15.54C5.4231 15.64 5.75333 15.7336 6 15.8203C6.25329 15.907 6.43648 16.0037 6.5498 16.1104C6.66977 16.217 6.73047 16.357 6.73047 16.5303C6.7304 16.77 6.62 16.9597 6.40039 17.0996C6.18706 17.2396 5.86302 17.3096 5.42969 17.3096C5.16316 17.3095 4.9397 17.2766 4.75977 17.21C4.58 17.1367 4.43668 17.0469 4.33008 16.9404C4.23019 16.8339 4.15703 16.7235 4.11035 16.6104C4.0705 16.5572 4.02694 16.5138 3.98047 16.4805C3.93385 16.4405 3.86681 16.42 3.78027 16.4199H2.70996C2.64998 16.4199 2.59956 16.4436 2.55957 16.4902C2.51982 16.5301 2.50004 16.5768 2.5 16.6299C2.51333 16.9698 2.62976 17.2899 2.84961 17.5898C3.06961 17.8898 3.39365 18.1336 3.82031 18.3203C4.25351 18.5068 4.79 18.5996 5.42969 18.5996C6.00969 18.5996 6.51686 18.5163 6.9502 18.3496C7.39004 18.1763 7.73386 17.9303 7.98047 17.6104C8.23378 17.2904 8.36035 16.9066 8.36035 16.46C8.36034 16.06 8.27293 15.7297 8.09961 15.4697C7.92629 15.2033 7.65645 14.9869 7.29004 14.8203C6.92343 14.6537 6.4469 14.5096 5.86035 14.3896C5.48057 14.2897 5.17371 14.2001 4.94043 14.1201C4.71385 14.0335 4.55021 13.9367 4.4502 13.8301C4.35686 13.7167 4.30957 13.5799 4.30957 13.4199C4.3096 13.1734 4.4033 12.9901 4.58984 12.8701C4.78318 12.7501 5.04345 12.6904 5.37012 12.6904C5.68326 12.6904 5.93661 12.7565 6.12988 12.8896C6.32983 13.0163 6.4502 13.1666 6.49023 13.3398C6.52357 13.4065 6.56678 13.4538 6.62012 13.4805C6.67333 13.507 6.73333 13.5205 6.7998 13.5205H7.91992C7.97992 13.5205 8.03031 13.5 8.07031 13.46C8.1102 13.4134 8.12988 13.3628 8.12988 13.3096C8.12314 13.1031 8.06031 12.8897 7.94043 12.6699C7.82043 12.4499 7.64349 12.2431 7.41016 12.0498C7.18349 11.8565 6.89646 11.7001 6.5498 11.5801C6.20987 11.4601 5.81667 11.4004 5.37012 11.4004ZM18.2002 11.4004C17.6069 11.4004 17.0863 11.5033 16.6396 11.71C16.1998 11.9166 15.8529 12.2264 15.5996 12.6396C15.3529 13.0463 15.2202 13.5504 15.2002 14.1504C15.1935 14.4436 15.1895 14.734 15.1895 15.0205C15.1895 15.3004 15.1935 15.5836 15.2002 15.8701C15.2202 16.4834 15.353 16.9937 15.5996 17.4004C15.8463 17.8003 16.19 18.0998 16.6299 18.2998C17.0699 18.4998 17.5935 18.5996 18.2002 18.5996C18.8 18.5996 19.3199 18.4998 19.7598 18.2998C20.1997 18.0998 20.5434 17.8003 20.79 17.4004C21.0367 16.9937 21.1694 16.4834 21.1895 15.8701C21.2028 15.5836 21.21 15.3004 21.21 15.0205C21.21 14.734 21.2028 14.4436 21.1895 14.1504C21.1761 13.5504 21.0434 13.0463 20.79 12.6396C20.5368 12.2265 20.1867 11.9166 19.7402 11.71C19.3003 11.5033 18.7867 11.4004 18.2002 11.4004ZM9.08496 11.5C9.01835 11.5 8.96168 11.5237 8.91504 11.5703C8.86849 11.6169 8.84473 11.6768 8.84473 11.75V12.6504C8.84481 12.7169 8.86846 12.7737 8.91504 12.8203C8.96166 12.8669 9.0184 12.8896 9.08496 12.8896H10.9053V18.25C10.9053 18.3231 10.9282 18.3831 10.9746 18.4297C11.0213 18.4764 11.0819 18.5 11.1553 18.5H12.2646C12.338 18.5 12.3986 18.4764 12.4453 18.4297C12.4918 18.3831 12.5146 18.3232 12.5146 18.25V12.8896H14.3252C14.3984 12.8896 14.4583 12.8668 14.5049 12.8203C14.5515 12.7737 14.5751 12.7169 14.5752 12.6504V11.75C14.5752 11.6767 14.5515 11.617 14.5049 11.5703C14.4582 11.5237 14.3985 11.5 14.3252 11.5H9.08496ZM22.7012 11.5C22.6279 11.5 22.5681 11.5237 22.5215 11.5703C22.4748 11.617 22.4512 11.6767 22.4512 11.75V18.25C22.4512 18.3233 22.4748 18.383 22.5215 18.4297C22.5681 18.4763 22.6279 18.5 22.7012 18.5H23.8408C23.9142 18.5 23.9748 18.4764 24.0215 18.4297C24.0679 18.3831 24.0908 18.3231 24.0908 18.25V15.9902H25.4307C25.9707 15.9902 26.4377 15.91 26.8311 15.75C27.2308 15.5901 27.5408 15.3469 27.7607 15.0205C27.9874 14.6872 28.1006 14.2664 28.1006 13.7598C28.1005 13.2599 27.9874 12.843 27.7607 12.5098C27.5408 12.1699 27.2309 11.9166 26.8311 11.75C26.4377 11.5833 25.9707 11.5 25.4307 11.5H22.7012ZM18.2002 12.6904C18.46 12.6905 18.6867 12.743 18.8799 12.8496C19.0798 12.9496 19.2394 13.1101 19.3594 13.3301C19.4793 13.55 19.5431 13.8332 19.5498 14.1797C19.5631 14.4663 19.5693 14.74 19.5693 15C19.5693 15.2533 19.5631 15.527 19.5498 15.8203C19.5364 16.3402 19.4027 16.72 19.1494 16.96C18.9029 17.1931 18.5866 17.3095 18.2002 17.3096C17.807 17.3096 17.4869 17.1932 17.2402 16.96C16.9936 16.72 16.8599 16.3402 16.8398 15.8203C16.8332 15.527 16.8301 15.2533 16.8301 15C16.8301 14.74 16.8332 14.4663 16.8398 14.1797C16.8532 13.8333 16.9161 13.55 17.0293 13.3301C17.1493 13.1101 17.3098 12.9496 17.5098 12.8496C17.7097 12.743 17.9403 12.6904 18.2002 12.6904ZM25.3809 12.75C25.7609 12.75 26.0345 12.8436 26.2012 13.0303C26.3744 13.2169 26.4609 13.4568 26.4609 13.75C26.4609 14.0833 26.3642 14.3333 26.1709 14.5C25.9842 14.6666 25.7208 14.75 25.3809 14.75H24.0605V12.75H25.3809Z" fill="#4ABAFF"/>
</svg>
